<?xml version="1.0" encoding="UTF-8" standalone="no"?>
<!-- Created with Inkscape (http://www.inkscape.org/) -->

<svg
   width="512"
   height="512"
   viewBox="0 0 135.46666 135.46666"
   version="1.1"
   id="svg1"
   inkscape:export-filename="favicon.png"
   inkscape:export-xdpi="24"
   inkscape:export-ydpi="24"
   inkscape:version="1.4.2 (ebf0e940d0, 2025-05-08)"
   sodipodi:docname="drawing.svg"
   xmlns:inkscape="http://www.inkscape.org/namespaces/inkscape"
   xmlns:sodipodi="http://sodipodi.sourceforge.net/DTD/sodipodi-0.dtd"
   xmlns="http://www.w3.org/2000/svg"
   xmlns:svg="http://www.w3.org/2000/svg">
  <sodipodi:namedview
     id="namedview1"
     pagecolor="#ffffff"
     bordercolor="#000000"
     borderopacity="0.25"
     inkscape:showpageshadow="2"
     inkscape:pageopacity="0.0"
     inkscape:pagecheckerboard="true"
     inkscape:deskcolor="#d1d1d1"
     inkscape:document-units="mm"
     inkscape:zoom="1.9854901"
     inkscape:cx="221.85958"
     inkscape:cy="266.43296"
     inkscape:window-width="2560"
     inkscape:window-height="1360"
     inkscape:window-x="0"
     inkscape:window-y="0"
     inkscape:window-maximized="1"
     inkscape:current-layer="layer1" />
  <defs
     id="defs1">
    <inkscape:path-effect
       effect="skeletal"
       id="path-effect3"
       is_visible="true"
       lpeversion="1"
       pattern="M 0,4.9921381 C 0,2.2364779 2.2364779,0 4.9921381,0 c 2.7556603,0 4.9921381,2.2364779 4.9921381,4.9921381 0,2.7556603 -2.2364778,4.9921381 -4.9921381,4.9921381 C 2.2364779,9.9842762 0,7.7477984 0,4.9921381 Z"
       copytype="single_stretched"
       prop_scale="1"
       scale_y_rel="false"
       spacing="0"
       normal_offset="0"
       tang_offset="0"
       prop_units="false"
       vertical_pattern="false"
       hide_knot="false"
       fuse_tolerance="0" />
  </defs>
  <g
     inkscape:label="Layer 1"
     inkscape:groupmode="layer"
     id="layer1">
    <text
       xml:space="preserve"
       style="font-size:137.159px;text-align:start;writing-mode:lr-tb;direction:ltr;text-anchor:start;display:none;fill:#000000;fill-opacity:1;stroke:none;stroke-width:171.46;stroke-linecap:round;stroke-linejoin:round;stroke-dasharray:514.376, 514.376;stroke-dashoffset:0;stroke-opacity:1"
       x="12.999664"
       y="112.86262"
       id="text5"><tspan
         sodipodi:role="line"
         id="tspan5"
         style="fill:#000000;fill-opacity:1;stroke:none;stroke-width:171.46"
         x="0"
         y="0">G</tspan></text>
    <path
       style="fill:none;fill-opacity:1;stroke:#000000;stroke-width:5.22093;stroke-linecap:round;stroke-linejoin:round;stroke-dasharray:15.6627, 15.6627;stroke-dashoffset:0;stroke-opacity:1"
       d="M 127.07415,33.185992 C 111.27469,6.2056506 97.722489,11.580432 82.905807,8.7961647 17.119479,-3.5660324 -13.20305,73.780431 25.40992,108.7128 c 10.535633,9.53137 15.642144,11.83642 28.222067,15.42573 7.59916,2.1682 23.679292,3.72125 31.552624,1.75292 6.802327,-1.70058 12.666987,-4.17465 19.457449,-7.53757 5.93609,-2.9398 -0.38984,-16.49052 3.15526,-20.85979 4.65974,-5.743053 0.69618,-15.241105 -2.76355,-18.53986 -5.108042,-4.870375 -15.107651,-9.623786 -27.06296,-8.055385"
       id="path5"
       sodipodi:nodetypes="csssssssc" />
    <g
       id="g7"
       transform="rotate(4.2,28.557171,91.004112)">
      <path
         style="fill:#000000;fill-opacity:1;stroke:none;stroke-width:5.15527;stroke-linecap:round;stroke-linejoin:round;stroke-dasharray:15.4657, 15.4657;stroke-dashoffset:0;stroke-opacity:1"
         id="path7"
         d="m 97.366676,33.542563 c -4.05377,3.575787 -7.92152,7.375268 -11.78221,11.179991 -1.27674,1.284382 -2.56809,2.552716 -3.83024,3.853146 -2.70584,2.787899 -5.871439,6.20767 -8.518081,9.054288 -4.079806,4.388067 -8.153614,8.78198 -12.210013,13.194262 -4.214698,4.51363 -8.268791,9.189974 -12.349358,13.838159 -0.763112,0.869266 -1.518937,1.745808 -2.291961,2.605215 -0.684709,0.761225 -1.38729,1.50423 -2.080932,2.256343 -2.771129,3.133365 -5.975875,5.761721 -9.293194,8.206701 -2.929678,2.161376 -0.04084,6.545232 2.88884,4.383862 v 0 c 3.576187,-2.640716 7.026667,-5.484302 10.020092,-8.858966 0.720741,-0.7822 1.450443,-1.555273 2.162225,-2.346607 0.775345,-0.862005 1.533449,-1.741189 2.298859,-2.613073 4.053091,-4.616891 8.079345,-9.262291 12.265955,-13.745234 4.048744,-4.404048 8.115055,-8.78957 12.187107,-13.169509 2.564434,-2.758335 5.776281,-6.227819 8.400791,-8.932381 1.24968,-1.287797 2.52835,-2.543723 3.79252,-3.815583 3.81632,-3.761487 7.63963,-7.517726 11.647584,-11.051998 2.69895,-2.474968 -0.60903,-6.513587 -3.307984,-4.038616 z" />
      <path
         style="fill:#000000;fill-opacity:1;stroke:none;stroke-width:4.5597;stroke-linecap:round;stroke-linejoin:round;stroke-dasharray:13.679, 13.679;stroke-dashoffset:0;stroke-opacity:1"
         id="path7-6"
         d="m 44.551385,33.542559 c 3.171229,3.575787 6.196948,7.375268 9.217133,11.179991 0.998789,1.284382 2.008999,2.552716 2.996373,3.853146 2.116757,2.787899 4.593182,6.20767 6.663631,9.054288 3.191603,4.388067 6.378514,8.78198 9.551806,13.194262 3.297128,4.51363 6.468616,9.189974 9.660814,13.838159 0.596977,0.869266 1.188253,1.745808 1.792984,2.605215 0.535643,0.761225 1.085267,1.50423 1.627899,2.256343 2.167834,3.133365 4.674884,5.761726 7.269998,8.206706 2.291866,2.16138 0.03195,6.545241 -2.259918,4.383871 v 0 C 88.274479,99.473819 85.575194,96.630229 83.233459,93.25556 82.669628,92.47336 82.098788,91.700287 81.541966,90.908953 80.935419,90.046948 80.34236,89.167764 79.743585,88.29588 76.572881,83.678989 73.423171,79.033589 70.148016,74.550646 66.980713,70.146598 63.799667,65.761076 60.61413,61.381137 58.607992,58.622802 56.095386,55.153318 54.042253,52.448756 53.064639,51.160959 52.064345,49.905033 51.075391,48.633173 48.089908,44.871686 45.098966,41.115447 41.963576,37.581175 c -2.111369,-2.474968 0.47644,-6.513587 2.587809,-4.038616 z" />
    </g>
    <text
       xml:space="preserve"
       style="font-size:3.175px;text-align:start;writing-mode:lr-tb;direction:ltr;text-anchor:start;fill:#000000;fill-opacity:1;stroke:none;stroke-width:3.96899;stroke-linecap:round;stroke-linejoin:round;stroke-dasharray:11.9069, 11.9069;stroke-dashoffset:0;stroke-opacity:1"
       x="74.469948"
       y="29.361404"
       id="text7"
       transform="rotate(13.761315)"><tspan
         sodipodi:role="line"
         id="tspan7"
         style="font-style:normal;font-variant:normal;font-weight:normal;font-stretch:normal;font-size:22.5778px;font-family:Contemporary;-inkscape-font-specification:'Contemporary, Normal';font-variant-ligatures:normal;font-variant-caps:normal;font-variant-numeric:normal;font-variant-east-asian:normal;stroke-width:3.969"
         x="74.469948"
         y="29.361404">S</tspan></text>
  </g>
</svg>
